<?xml version="1.0" encoding="UTF-8"?><svg xmlns="http://www.w3.org/2000/svg" xmlns:xlink="http://www.w3.org/1999/xlink" fill-opacity="1" color-rendering="auto" color-interpolation="auto" text-rendering="auto" stroke="black" stroke-linecap="square" width="388" stroke-miterlimit="10" shape-rendering="auto" stroke-opacity="1" fill="black" stroke-dasharray="none" font-weight="normal" stroke-width="1" height="378" font-family="'Dialog'" font-style="normal" stroke-linejoin="miter" font-size="12px" stroke-dashoffset="0" image-rendering="auto">
  <!--Generated by ySVG 2.5-->
  <defs id="genericDefs"/>
  <g>
    <defs id="defs1">
      <clipPath clipPathUnits="userSpaceOnUse" id="clipPath1">
        <path d="M0 0 L388 0 L388 378 L0 378 L0 0 Z"/>
      </clipPath>
      <clipPath clipPathUnits="userSpaceOnUse" id="clipPath2">
        <path d="M167 138 L555 138 L555 516 L167 516 L167 138 Z"/>
      </clipPath>
    </defs>
    <g fill="white" text-rendering="geometricPrecision" shape-rendering="geometricPrecision" transform="translate(-167,-138)" stroke="white">
      <rect x="167" width="388" height="378" y="138" clip-path="url(#clipPath2)" stroke="none"/>
    </g>
    <g fill="rgb(255,204,0)" text-rendering="geometricPrecision" shape-rendering="geometricPrecision" transform="matrix(1,0,0,1,-167,-138)" stroke="rgb(255,204,0)">
      <rect x="331" y="266" clip-path="url(#clipPath2)" width="59" rx="4" ry="4" height="73" stroke="none"/>
    </g>
    <g text-rendering="geometricPrecision" stroke-miterlimit="1.45" shape-rendering="geometricPrecision" transform="matrix(1,0,0,1,-167,-138)" stroke-linecap="butt">
      <rect x="331" y="266" clip-path="url(#clipPath2)" fill="none" width="59" rx="4" ry="4" height="73"/>
      <text x="357.1748" xml:space="preserve" y="285.5078" clip-path="url(#clipPath2)" font-family="sans-serif" stroke="none">λ</text>
      <text x="338.8525" xml:space="preserve" y="299.5703" clip-path="url(#clipPath2)" font-family="sans-serif" stroke="none">OAuth2-</text>
      <text x="343.9766" xml:space="preserve" y="313.6328" clip-path="url(#clipPath2)" font-family="sans-serif" stroke="none">PKCE-</text>
      <text x="345.8604" xml:space="preserve" y="327.6953" clip-path="url(#clipPath2)" font-family="sans-serif" stroke="none">proxy</text>
    </g>
    <g fill="rgb(255,204,0)" text-rendering="geometricPrecision" shape-rendering="geometricPrecision" transform="matrix(1,0,0,1,-167,-138)" stroke="rgb(255,204,0)">
      <ellipse rx="53" ry="36.5" clip-path="url(#clipPath2)" cx="249" cy="189.5" stroke="none"/>
    </g>
    <g text-rendering="geometricPrecision" stroke-miterlimit="1.45" shape-rendering="geometricPrecision" transform="matrix(1,0,0,1,-167,-138)" stroke-linecap="butt">
      <ellipse rx="53" fill="none" ry="36.5" clip-path="url(#clipPath2)" cx="249" cy="189.5"/>
      <text x="226.8486" xml:space="preserve" y="179.5391" clip-path="url(#clipPath2)" font-family="sans-serif" stroke="none">Amazon</text>
      <text x="202.377" xml:space="preserve" y="193.6016" clip-path="url(#clipPath2)" font-family="sans-serif" stroke="none">Key Management</text>
      <text x="229.5352" xml:space="preserve" y="207.6641" clip-path="url(#clipPath2)" font-family="sans-serif" stroke="none">Service</text>
    </g>
    <g fill="rgb(255,204,0)" text-rendering="geometricPrecision" shape-rendering="geometricPrecision" transform="matrix(1,0,0,1,-167,-138)" stroke="rgb(255,204,0)">
      <ellipse rx="47" ry="32" clip-path="url(#clipPath2)" cx="462" cy="185" stroke="none"/>
    </g>
    <g text-rendering="geometricPrecision" stroke-miterlimit="1.45" shape-rendering="geometricPrecision" transform="matrix(1,0,0,1,-167,-138)" stroke-linecap="butt">
      <ellipse rx="47" fill="none" ry="32" clip-path="url(#clipPath2)" cx="462" cy="185"/>
      <text x="439.8486" xml:space="preserve" y="175.0391" clip-path="url(#clipPath2)" font-family="sans-serif" stroke="none">Amazon</text>
      <text x="425.1123" xml:space="preserve" y="189.1016" clip-path="url(#clipPath2)" font-family="sans-serif" stroke="none">Simple Queue</text>
      <text x="442.5352" xml:space="preserve" y="203.1641" clip-path="url(#clipPath2)" font-family="sans-serif" stroke="none">Service</text>
    </g>
    <g fill="rgb(255,204,0)" text-rendering="geometricPrecision" shape-rendering="geometricPrecision" transform="matrix(1,0,0,1,-167,-138)" stroke="rgb(255,204,0)">
      <path d="M182 378 L235.1 378 L241 410 L235.1 442 L182 442 L187.9 410 Z" fill-rule="evenodd" clip-path="url(#clipPath2)" stroke="none"/>
    </g>
    <g text-rendering="geometricPrecision" stroke-miterlimit="1.45" shape-rendering="geometricPrecision" transform="matrix(1,0,0,1,-167,-138)" stroke-linecap="butt">
      <path fill="none" d="M182 378 L235.1 378 L241 410 L235.1 442 L182 442 L187.9 410 Z" fill-rule="evenodd" clip-path="url(#clipPath2)"/>
      <text x="196.7051" xml:space="preserve" y="393.0078" clip-path="url(#clipPath2)" font-family="sans-serif" stroke="none">Alexa</text>
      <text x="200.5195" xml:space="preserve" y="407.0703" clip-path="url(#clipPath2)" font-family="sans-serif" stroke="none">Skill</text>
      <text x="204.3135" xml:space="preserve" y="421.1328" clip-path="url(#clipPath2)" font-family="sans-serif" stroke="none">Kit</text>
      <text x="187.3682" xml:space="preserve" y="435.1953" clip-path="url(#clipPath2)" font-family="sans-serif" stroke="none">(OAuth2)</text>
    </g>
    <g fill="rgb(255,204,0)" text-rendering="geometricPrecision" shape-rendering="geometricPrecision" transform="matrix(1,0,0,1,-167,-138)" stroke="rgb(255,204,0)">
      <path d="M477 378 L540 378 L532.9999 407.5 L540 437 L477 437 L470 407.5 Z" fill-rule="evenodd" clip-path="url(#clipPath2)" stroke="none"/>
    </g>
    <g text-rendering="geometricPrecision" stroke-miterlimit="1.45" shape-rendering="geometricPrecision" transform="matrix(1,0,0,1,-167,-138)" stroke-linecap="butt">
      <path fill="none" d="M477 378 L540 378 L532.9999 407.5 L540 437 L477 437 L470 407.5 Z" fill-rule="evenodd" clip-path="url(#clipPath2)"/>
      <text x="485.0107" xml:space="preserve" y="397.5391" clip-path="url(#clipPath2)" font-family="sans-serif" stroke="none">OAuth2</text>
      <text x="488.1016" xml:space="preserve" y="411.6016" clip-path="url(#clipPath2)" font-family="sans-serif" stroke="none">Server</text>
      <text x="485.9922" xml:space="preserve" y="425.6641" clip-path="url(#clipPath2)" font-family="sans-serif" stroke="none">(PKCE)</text>
    </g>
    <g fill="rgb(255,204,0)" text-rendering="geometricPrecision" shape-rendering="geometricPrecision" transform="matrix(1,0,0,1,-167,-138)" stroke="rgb(255,204,0)">
      <path d="M365.5 458 L405.5 501 L325.5 501 Z" fill-rule="evenodd" clip-path="url(#clipPath2)" stroke="none"/>
    </g>
    <g text-rendering="geometricPrecision" stroke-miterlimit="1.45" shape-rendering="geometricPrecision" transform="matrix(1,0,0,1,-167,-138)" stroke-linecap="butt">
      <path fill="none" d="M365.5 458 L405.5 501 L325.5 501 Z" fill-rule="evenodd" clip-path="url(#clipPath2)"/>
      <text x="353.2979" xml:space="preserve" y="476.5703" clip-path="url(#clipPath2)" font-family="sans-serif" stroke="none">User</text>
      <text x="339.3438" xml:space="preserve" y="490.6328" clip-path="url(#clipPath2)" font-family="sans-serif" stroke="none">(Browser)</text>
    </g>
    <g fill="rgb(255,204,0)" text-rendering="geometricPrecision" shape-rendering="geometricPrecision" transform="matrix(1,0,0,1,-167,-138)" stroke="rgb(255,204,0)">
      <rect x="280" y="303" clip-path="url(#clipPath2)" width="51" rx="4" ry="4" height="45" stroke="none"/>
    </g>
    <g text-rendering="geometricPrecision" stroke-miterlimit="1.45" shape-rendering="geometricPrecision" transform="matrix(1,0,0,1,-167,-138)" stroke-linecap="butt">
      <rect x="280" y="303" clip-path="url(#clipPath2)" fill="none" width="51" rx="4" ry="4" height="45"/>
      <text x="296.1689" xml:space="preserve" y="322.5703" clip-path="url(#clipPath2)" font-family="sans-serif" stroke="none">API</text>
      <text x="282.3936" xml:space="preserve" y="336.6328" clip-path="url(#clipPath2)" font-family="sans-serif" stroke="none">Gateway</text>
      <path fill="none" d="M331.0189 272.6223 L284.4075 225.3838" clip-path="url(#clipPath2)"/>
      <path d="M278.7886 219.6893 L283.6579 231.7429 L285.1099 226.0957 L290.7761 224.7193 Z" clip-path="url(#clipPath2)" stroke="none"/>
      <path fill="none" d="M279.457 219.3713 L327 266 L331.0239 270.3843" clip-path="url(#clipPath2)"/>
      <path d="M331.0239 270.3843 L326.5934 258.1625 L324.9383 263.7537 L319.2261 264.9244 Z" clip-path="url(#clipPath2)" stroke="none"/>
      <path fill="none" d="M389.7655 268.6212 L432.9433 218.6371" clip-path="url(#clipPath2)"/>
      <path d="M438.1729 212.5831 L426.5447 218.3955 L432.2896 219.3938 L434.1122 224.9326 Z" clip-path="url(#clipPath2)" stroke="none"/>
      <path fill="none" d="M438.1729 212.5831 L394.9897 262.5735" clip-path="url(#clipPath2)"/>
      <path d="M389.7601 268.6275 L401.3883 262.815 L395.6434 261.8167 L393.8208 256.278 Z" clip-path="url(#clipPath2)" stroke="none"/>
      <path fill="none" d="M390.028 323.9563 L468.6905 381.1159" clip-path="url(#clipPath2)"/>
      <path d="M475.1623 385.8186 L468.3937 374.7197 L467.8815 380.5281 L462.5154 382.8094 Z" clip-path="url(#clipPath2)" stroke="none"/>
      <path fill="none" d="M240.9861 409.7488 L462.0971 407.8654" clip-path="url(#clipPath2)"/>
      <path d="M470.0968 407.7973 L458.0546 402.8997 L461.0971 407.874 L458.1398 412.8994 Z" clip-path="url(#clipPath2)" stroke="none"/>
      <path fill="none" d="M470.0681 407.7975 L248.9484 409.681" clip-path="url(#clipPath2)"/>
      <path d="M240.9487 409.7491 L252.9909 414.6468 L249.9484 409.6725 L252.9057 404.6472 Z" clip-path="url(#clipPath2)" stroke="none"/>
      <path fill="none" d="M473.8373 423.584 L386.1247 468.855" clip-path="url(#clipPath2)"/>
      <path d="M379.0157 472.5241 L391.9724 471.4635 L387.0133 468.3964 L387.3859 462.5773 Z" clip-path="url(#clipPath2)" stroke="none"/>
      <path fill="none" d="M238.7583 422.3016 L344.1292 469.8554" clip-path="url(#clipPath2)"/>
      <path d="M351.421 473.1462 L342.54 463.6526 L343.2177 469.444 L338.4265 472.7674 Z" clip-path="url(#clipPath2)" stroke="none"/>
      <path fill="none" d="M351.4009 473.1371 L246.0137 425.576" clip-path="url(#clipPath2)"/>
      <path d="M238.7219 422.2852 L247.6029 431.7788 L246.9252 425.9874 L251.7164 422.664 Z" clip-path="url(#clipPath2)" stroke="none"/>
      <path fill="none" d="M379.0209 472.5215 L466.7346 427.2499" clip-path="url(#clipPath2)"/>
      <path d="M473.8435 423.5807 L460.8869 424.6414 L465.8459 427.7086 L465.4733 433.5276 Z" clip-path="url(#clipPath2)" stroke="none"/>
      <path fill="none" d="M236.813 387.2452 L275.5033 352.4651" clip-path="url(#clipPath2)"/>
      <path d="M281.4528 347.1169 L269.1859 351.4208 L274.7596 353.1336 L275.8712 358.8576 Z" clip-path="url(#clipPath2)" stroke="none"/>
    </g>
  </g>
</svg>
